<?xml version="1.0" standalone="no"?>
<!DOCTYPE svg PUBLIC "-//W3C//DTD SVG 20010904//EN"
 "http://www.w3.org/TR/2001/REC-SVG-20010904/DTD/svg10.dtd">
<svg version="1.0" xmlns="http://www.w3.org/2000/svg"
 width="815.000000pt" height="1280.000000pt" viewBox="0 0 815.000000 1280.000000"
 preserveAspectRatio="xMidYMid meet">
<metadata>
Created by potrace 1.15, written by Peter Selinger 2001-2017
</metadata>
<g transform="translate(0.000000,1280.000000) scale(0.100000,-0.100000)"
fill="#000000" stroke="none">
<path d="M7414 12761 c-134 -89 -229 -194 -309 -341 -132 -239 -311 -417 -770
-764 -93 -71 -217 -168 -275 -215 -161 -131 -440 -416 -579 -591 -143 -180
-516 -578 -723 -771 -79 -73 -160 -156 -181 -184 -78 -104 -99 -125 -194 -187
-54 -36 -128 -90 -165 -121 -76 -65 -149 -105 -199 -109 -30 -3 -34 0 -37 24
-3 21 -10 30 -30 34 -40 10 -81 53 -88 93 -4 19 -15 53 -25 76 -10 22 -27 78
-39 125 -15 58 -39 113 -76 177 -140 238 -282 354 -457 373 -189 21 -416 31
-438 20 -12 -7 -78 -32 -148 -56 -162 -58 -199 -80 -298 -181 -90 -91 -165
-198 -194 -274 -24 -61 -26 -211 -5 -325 8 -44 18 -120 21 -171 7 -89 6 -93
-19 -117 -34 -35 -81 -34 -156 4 -77 39 -123 40 -147 3 -9 -16 -40 -57 -69
-93 -28 -36 -56 -75 -63 -87 -15 -30 -14 -98 3 -131 14 -27 14 -86 1 -128 -10
-31 36 -64 87 -64 33 0 46 -6 72 -34 17 -19 42 -36 56 -38 20 -2 26 -10 32
-45 4 -23 19 -60 33 -82 21 -31 25 -47 20 -71 -5 -22 -2 -37 8 -48 8 -9 18
-27 22 -40 9 -31 60 -55 104 -49 20 2 58 14 83 26 60 27 69 26 98 -4 29 -31
47 -31 105 -1 25 14 53 22 61 19 27 -10 58 -85 58 -139 0 -43 -6 -61 -35 -105
-20 -30 -49 -60 -65 -68 -16 -7 -45 -21 -64 -30 -29 -13 -104 -81 -250 -226
-123 -121 -213 -233 -249 -308 -65 -134 -211 -476 -243 -566 -88 -253 -99
-460 -37 -698 29 -112 63 -193 135 -323 74 -135 96 -210 98 -338 1 -82 -1 -95
-18 -108 -36 -26 -100 -15 -337 56 -660 199 -940 233 -1136 139 -48 -23 -80
-49 -135 -111 -40 -45 -109 -120 -154 -167 -96 -103 -110 -140 -100 -259 6
-81 59 -293 99 -405 39 -106 85 -172 186 -265 51 -47 141 -144 199 -215 129
-159 383 -415 477 -482 148 -104 309 -229 552 -428 292 -239 428 -342 519
-393 35 -20 78 -52 94 -73 16 -20 48 -58 70 -86 40 -49 60 -97 60 -143 0 -12
18 -42 40 -66 37 -40 53 -86 30 -86 -5 0 -19 -9 -29 -19 -17 -17 -18 -25 -9
-57 8 -31 7 -40 -6 -50 -23 -16 -20 -26 14 -59 17 -16 33 -44 36 -64 8 -46 26
-81 53 -105 14 -12 21 -31 21 -54 0 -28 9 -44 45 -80 35 -35 48 -43 57 -34 20
20 43 13 79 -24 18 -20 53 -49 77 -66 51 -35 51 -56 2 -80 -35 -18 -35 -18 -7
-18 36 0 35 -22 -4 -57 -44 -40 -81 -79 -131 -143 -49 -62 -117 -104 -194
-120 -28 -6 -67 -20 -87 -30 -21 -11 -79 -37 -130 -57 -110 -43 -164 -78 -210
-136 -86 -106 -100 -175 -58 -297 16 -47 27 -88 25 -91 -2 -4 -26 -9 -54 -13
-74 -10 -99 -22 -106 -51 -13 -53 51 -85 214 -104 46 -6 230 -15 410 -21 357
-11 558 -24 612 -40 28 -8 41 -19 57 -53 12 -25 32 -48 49 -56 54 -25 58 -27
62 -39 13 -40 -151 -116 -276 -129 -64 -7 -83 7 -117 84 -33 74 -62 87 -199
88 l-108 0 -39 -43 c-88 -100 -100 -268 -26 -376 31 -44 89 -66 182 -66 95 0
134 18 164 78 27 54 42 63 108 69 77 6 803 -34 836 -46 25 -10 37 -23 80 -91
33 -52 77 -70 171 -70 93 0 140 21 182 82 29 41 54 122 54 173 0 55 -30 135
-65 173 l-33 37 -114 0 c-103 0 -116 -2 -143 -23 -17 -13 -42 -44 -56 -70 -29
-53 -49 -60 -116 -41 -57 15 -93 44 -93 73 0 13 -10 45 -21 71 -24 54 -22 126
3 152 8 7 41 20 74 28 112 26 245 75 290 106 119 82 498 234 1199 480 202 71
324 109 351 109 55 0 102 -33 135 -95 33 -62 64 -76 189 -82 119 -6 148 8 205
91 l40 58 86 -5 c47 -3 113 -13 147 -21 48 -13 71 -14 108 -6 32 7 77 8 143 1
53 -6 137 -13 186 -17 184 -13 234 -34 274 -113 42 -82 55 -90 148 -98 166
-12 214 12 258 129 38 102 43 197 16 269 -32 83 -51 97 -149 105 -109 9 -154
-8 -222 -84 l-50 -56 -38 13 c-90 33 -303 144 -345 182 -47 41 -76 101 -64
133 8 20 128 56 188 56 34 0 66 -8 102 -27 46 -24 65 -28 174 -31 195 -6 445
41 490 93 28 32 43 85 43 157 0 54 2 58 38 84 138 101 196 150 278 231 255
255 381 523 315 668 -41 91 -123 136 -281 156 -107 13 -278 0 -405 -30 -149
-35 -143 -35 -233 9 -74 36 -86 45 -122 101 -44 68 -49 99 -26 164 52 147 61
191 58 276 -2 68 1 94 17 130 34 73 28 137 -21 243 -23 50 -54 111 -69 136
-43 73 -107 456 -128 780 -30 443 -43 604 -56 698 -32 225 -106 499 -231 857
-42 121 -111 321 -152 445 l-76 225 -231 229 c-143 142 -245 235 -270 247 -50
23 -151 25 -221 4 -28 -8 -99 -46 -158 -85 -119 -76 -146 -85 -244 -78 -107 8
-141 31 -206 140 -30 51 -83 126 -119 165 l-64 72 -6 188 c-10 289 -8 766 3
821 8 33 26 67 59 108 27 32 92 122 146 199 109 155 254 349 416 557 146 186
190 250 255 364 41 74 75 119 133 175 43 42 98 105 122 140 72 108 108 147
223 242 175 144 254 230 360 394 25 40 51 75 56 78 5 3 40 52 77 108 106 158
339 396 497 506 50 35 123 94 162 131 66 62 81 71 201 118 72 28 150 56 174
62 24 6 80 22 124 35 44 13 99 29 123 35 51 13 104 57 138 116 35 60 27 78
-31 70 -41 -7 -45 -5 -45 13 0 11 23 66 50 122 28 56 50 109 50 118 0 27 -27
57 -66 76 l-36 17 -39 -38 c-40 -39 -42 -39 -39 9 1 19 -3 27 -15 27 -9 0 -30
7 -47 16 -36 18 -95 21 -111 5 -19 -19 -39 -12 -72 27 -31 35 -36 37 -85 35
-46 -2 -58 2 -87 27 -18 17 -44 30 -57 30 -13 0 -50 -18 -82 -39z m-4583
-7111 c33 -53 34 -79 13 -168 -23 -91 -53 -124 -83 -88 -14 17 -71 218 -71
251 0 32 36 56 79 53 29 -3 39 -10 62 -48z m3174 -1891 c4 -6 8 -47 10 -92 2
-79 14 -141 37 -199 5 -15 77 -86 159 -159 160 -141 163 -146 138 -218 -13
-37 -27 -39 -167 -15 -78 14 -107 14 -164 5 -121 -20 -239 -86 -274 -153 -9
-16 -24 -75 -35 -129 -15 -79 -17 -109 -9 -145 20 -88 77 -180 170 -272 40
-39 60 -67 58 -79 -6 -33 -95 -64 -415 -144 -358 -89 -506 -137 -838 -269
-296 -118 -288 -119 -412 74 -80 123 -130 186 -148 186 -8 0 -29 -9 -47 -20
-84 -51 -133 -13 -444 348 -232 268 -234 271 -234 296 0 13 -10 36 -22 52 -24
30 -90 150 -138 251 -38 80 -49 130 -50 225 0 68 2 79 21 89 36 19 99 4 215
-49 206 -95 357 -134 583 -153 146 -13 357 -1 485 26 170 36 1076 325 1177
376 41 20 124 69 184 108 104 68 146 84 160 60z m-3167 -1422 c11 -10 28 -56
42 -110 l23 -92 -22 -66 c-12 -36 -27 -74 -34 -83 -12 -17 -15 -16 -49 4 -24
14 -41 33 -48 56 -11 32 -46 79 -117 157 -26 28 -63 37 -63 14 0 -8 32 -43 71
-79 60 -56 70 -70 67 -94 -3 -27 -6 -29 -45 -27 -24 1 -57 10 -74 20 -25 15
-77 83 -123 160 -4 7 3 22 15 34 14 14 19 28 15 44 -16 64 23 80 192 79 109 0
135 -3 150 -17z"/>
</g>
</svg>
